# xmcd CD database file
#
# Track frame offsets:
#	150
#	21849
#	40393
#	68140
#	85176
#	107025
#	131323
#	142462
#	161067
#	185446
#	197476
#	211714
#	227584
#	260977
#	275387
#	301441
#
# Disc length: 4246 seconds
#
# Revision: 0
# Processed by: cddbd v1.5.1PL2 Copyright (c) Steve Scherf et al.
# Submitted via: CDex 1.70beta2
#
DISCID=e8109410
DTITLE=Various Artist - Master Of Blues Vol. 2
DYEAR=1900
DGENRE=Blues
TTITLE0=B. B. King - Early In The Morning
TTITLE1=Saffire - Hungry Woman's Blues
TTITLE2=Gary Moore - Still Got The Blues
TTITLE3=The Duke Robillard Band - Love Slipped In
TTITLE4=Willie Dixon - I'm Your Hoochie Coochie Man
TTITLE5=Stevie Ray Vaughn - Texas Flood
TTITLE6=Cheat Atkins - Make The World Go Away
TTITLE7=Muddy Waters - Howlin Wolf
TTITLE8=Joe Louis Walker - Gold and Evil Night
TTITLE9=Taj Mahal - Country Blues 
TTITLE10=Son Seals - Hot Sauce
TTITLE11=Elvin Bishop - Pigmeat On The Line
TTITLE12=Robben Ford - Top Of The Hill
TTITLE13=Keith Richards - I Could Have Stood You Up
TTITLE14=Son House - Preachin' Blues
TTITLE15=Jimmy Reed - Cry Before I Go
EXTD=
EXTT0=
EXTT1=
EXTT2=
EXTT3=
EXTT4=
EXTT5=
EXTT6=
EXTT7=
EXTT8=
EXTT9=
EXTT10=
EXTT11=
EXTT12=
EXTT13=
EXTT14=
EXTT15=
PLAYORDER=
